<svg xmlns="http://www.w3.org/2000/svg" viewBox="0 0 512 512"><defs><style>.a{fill:#fffdfd;}</style></defs><path class="a" d="M121.46,200.49H381.89V169.22c.73-7.75-4.67-9.68-11.23-10-3.77-.18-8-.2-11.75,0h-150c-36,0-43.14-19-49.92-37.1-3.87-10.31-7.56-20.16-22.63-20.16H32A12.39,12.39,0,0,0,19.69,114.3V367.14L81.08,227.3c6.5-14.8,24.11-26.81,40.38-26.81Zm279.91,0h86c19.1,0,29.7,16.27,21.82,34.27h0L435.49,402.69c-6.5,14.82-24.13,26.81-40.38,26.81H29.21c-7.64,0-13.83-2.56-18.06-6.73C5,417.58.21,405.65.21,397.74V114.3A31.87,31.87,0,0,1,32,82.5h104.3c28.49,0,34.52,16,40.82,32.86,4.46,11.88,9.15,24.38,31.73,24.38,51.16,0,102.4.33,153.54,0,3.05,0,6.18-.06,9.1.07,16.39.76,30.79,5.4,29.85,29.39l0,31.27Zm85.9,19H121.38c-8.65,0-19,7.41-22.42,15.24L25.25,402.69h0c-2,4.68-1.46,7.8,4.06,7.8H395.19c8.65,0,19-7.43,22.41-15.25L491.31,227.3c.07,0,4.09-7.77-4-7.77Z"/></svg>